<svg xmlns="http://www.w3.org/2000/svg" width="1200" height="630" viewBox="0 0 1200 630">
  <defs>
    <linearGradient id="bg" x1="0" y1="0" x2="1" y2="1">
      <stop offset="0%" stop-color="#0b0f14"/>
      <stop offset="100%" stop-color="#263238"/>
    </linearGradient>
  </defs>
  <rect width="1200" height="630" rx="28" fill="url(#bg)"/>
  <g font-family="Arial, Helvetica, sans-serif">
    <text x="80" y="85" fill="#ffffff" font-size="46" font-weight="700">FitStyle Online Store — Splunk ITSI</text>
    <text x="80" y="130" fill="#9ef01a" font-size="26">Observability • Service Intelligence • AIOps</text>

    <g fill="#151c22" stroke="#5c6770" stroke-width="2">
      <rect x="80" y="185" width="300" height="125" rx="18"/>
      <rect x="450" y="185" width="300" height="125" rx="18"/>
      <rect x="820" y="185" width="300" height="125" rx="18"/>
      <rect x="265" y="370" width="300" height="125" rx="18"/>
      <rect x="635" y="370" width="300" height="125" rx="18"/>
    </g>
    <g fill="#ffffff" text-anchor="middle">
      <text x="230" y="235" font-size="30" font-weight="700">13+ Services</text>
      <text x="230" y="275" font-size="23" fill="#b0bec5">Service Mapping</text>
      <text x="600" y="235" font-size="30" font-weight="700">19 Entities</text>
      <text x="600" y="275" font-size="23" fill="#b0bec5">Entity Correlation</text>
      <text x="970" y="235" font-size="30" font-weight="700">62 KPIs</text>
      <text x="970" y="275" font-size="23" fill="#b0bec5">Thresholds &amp; Health</text>
      <text x="415" y="420" font-size="30" font-weight="700">Episodes</text>
      <text x="415" y="460" font-size="23" fill="#b0bec5">Multi-KPI Alerting</text>
      <text x="785" y="420" font-size="30" font-weight="700">Glass Tables</text>
      <text x="785" y="460" font-size="23" fill="#b0bec5">Real-Time RCA</text>
    </g>
    <text x="600" y="575" fill="#dce775" font-size="27" text-anchor="middle">BARQ Systems Internship Project</text>
  </g>
</svg>